<svg xmlns="http://www.w3.org/2000/svg"  viewBox="0 0 64 64" width="64px" height="64px" baseProfile="basic"><path fill="none" stroke="#9c34c2" stroke-linecap="round" stroke-miterlimit="10" stroke-width="4" d="M32,23c0,0-0.604-6.057,6-7	c7-1,7-7,7-7"/><ellipse cx="32" cy="61" opacity=".3" rx="24" ry="3"/><path fill="#37d0ee" d="M55,52H10c-2.761,0-5-2.239-5-5V25.303C5,22.667,6.791,21,9,21h47c2.209,0,4,2.137,4,4.774V47	C60,49.761,57.761,52,55,52z"/><path fill="#fff" d="M26,21H9c-2.209,0-4,1.791-4,4v20c2.762,0,5-2.238,5-5V26h11C23.762,26,26,23.762,26,21z" opacity=".3"/><path d="M60,47V33c-2.762,0-5,2.238-5,5v7c0,1.105-0.895,2-2,2H36c-2.762,0-5,2.238-5,5h24	C57.761,52,60,49.761,60,47z" opacity=".15"/><path fill="#fff" d="M8.499,31.994c-0.829,0-1.5-0.672-1.5-1.5v-4.992c0-1.379,1.122-2.5,2.5-2.5h3.007	c0.829,0,1.5,0.672,1.5,1.5s-0.671,1.5-1.5,1.5H9.999v4.492C9.999,31.322,9.327,31.994,8.499,31.994z"/><path fill="#9c34c2" d="M14,31h-3c-0.552,0-1-0.448-1-1v-3c0-0.552,0.448-1,1-1h3c0.552,0,1,0.448,1,1v3	C15,30.552,14.552,31,14,31z"/><path fill="#9c34c2" d="M22,31h-3c-0.552,0-1-0.448-1-1v-3c0-0.552,0.448-1,1-1h3c0.552,0,1,0.448,1,1v3	C23,30.552,22.552,31,22,31z"/><path fill="#9c34c2" d="M26,39h-3c-0.552,0-1-0.448-1-1v-3c0-0.552,0.448-1,1-1h3c0.552,0,1,0.448,1,1v3	C27,38.552,26.552,39,26,39z"/><path fill="#9c34c2" d="M44,47H21c-0.552,0-1-0.448-1-1v-3c0-0.552,0.448-1,1-1h23c0.552,0,1,0.448,1,1v3	C45,46.552,44.552,47,44,47z"/><path fill="#9c34c2" d="M34,39h-3c-0.552,0-1-0.448-1-1v-3c0-0.552,0.448-1,1-1h3c0.552,0,1,0.448,1,1v3	C35,38.552,34.552,39,34,39z"/><path fill="#9c34c2" d="M42,39h-3c-0.552,0-1-0.448-1-1v-3c0-0.552,0.448-1,1-1h3c0.552,0,1,0.448,1,1v3	C43,38.552,42.552,39,42,39z"/><path fill="#9c34c2" d="M18,39h-7c-0.552,0-1-0.448-1-1v-3c0-0.552,0.448-1,1-1h7c0.552,0,1,0.448,1,1v3	C19,38.552,18.552,39,18,39z"/><path fill="#9c34c2" d="M16,47h-5c-0.552,0-1-0.448-1-1v-3c0-0.552,0.448-1,1-1h5c0.552,0,1,0.448,1,1v3	C17,46.552,16.552,47,16,47z"/><path fill="#9c34c2" d="M54,47h-5c-0.552,0-1-0.448-1-1v-3c0-0.552,0.448-1,1-1h5c0.552,0,1,0.448,1,1v3	C55,46.552,54.552,47,54,47z"/><path fill="#9c34c2" d="M54,39h-7c-0.552,0-1-0.448-1-1v-3c0-0.552,0.448-1,1-1h7c0.552,0,1,0.448,1,1v3	C55,38.552,54.552,39,54,39z"/><path fill="#9c34c2" d="M30,31h-3c-0.552,0-1-0.448-1-1v-3c0-0.552,0.448-1,1-1h3c0.552,0,1,0.448,1,1v3	C31,30.552,30.552,31,30,31z"/><path fill="#9c34c2" d="M38,31h-3c-0.552,0-1-0.448-1-1v-3c0-0.552,0.448-1,1-1h3c0.552,0,1,0.448,1,1v3	C39,30.552,38.552,31,38,31z"/><path fill="#9c34c2" d="M46,31h-3c-0.552,0-1-0.448-1-1v-3c0-0.552,0.448-1,1-1h3c0.552,0,1,0.448,1,1v3	C47,30.552,46.552,31,46,31z"/><path fill="#9c34c2" d="M54,31h-3c-0.552,0-1-0.448-1-1v-3c0-0.552,0.448-1,1-1h3c0.552,0,1,0.448,1,1v3	C55,30.552,54.552,31,54,31z"/></svg>